# xmcd
#
# Track frame offsets:
#	150
#	16357
#	38490
#	58589
#	71096
#	100085
#	114269
#	130752
#	154820
#	169041
#	189174
#	212986
#	244658
#
# Disc length: 3514 seconds
#
# Revision: 1
# Processed by: cddbd v1.5.2PL0 Copyright (c) Steve Scherf et al.
# Submitted via: audiograbber 1.83.01
#
DISCID=a50db80d
DTITLE=JP Soars - More Bees With Honey
DYEAR=1900
DGENRE=
TTITLE0=More Bees Wyth Honey
TTITLE1=K.Y.N.O.B.
TTITLE2=So Many Times
TTITLE3=Hot Little Woman
TTITLE4=Doggin'
TTITLE5=Back Of My Mind
TTITLE6=The Hustle (Is On)
TTITLE7=Lost It All
TTITLE8=Twitchin'
TTITLE9=Sweet Blood Call
TTITLE10=They'll Do It Every Time
TTITLE11=Chasing Whiskey With Whiskey
TTITLE12=Where'd You Stay Last Night
EXTD=
EXTT0=
EXTT1=
EXTT2=
EXTT3=
EXTT4=
EXTT5=
EXTT6=
EXTT7=
EXTT8=
EXTT9=
EXTT10=
EXTT11=
EXTT12=
PLAYORDER=
